<svg width="1404" height="1418" viewBox="0 0 1404 1418" fill="none" xmlns="http://www.w3.org/2000/svg">
<path d="M0 51.4537C0 28.4732 24.779 14.0259 44.7779 25.346L779.778 441.384C789.185 446.708 795 456.682 795 467.491V1388C795 1404.57 781.569 1418 765 1418H30C13.4314 1418 0 1404.57 0 1388V51.4537Z" fill="black"/>
<path d="M609 777.991C609 766.825 615.201 756.583 625.096 751.407L1360.1 366.964C1380.07 356.517 1404 371.006 1404 393.548V1388C1404 1404.57 1390.57 1418 1374 1418H639C622.431 1418 609 1404.57 609 1388V777.991Z" fill="black"/>
</svg>
